<svg width="164" height="145" viewBox="0 0 164 145" fill="none" xmlns="http://www.w3.org/2000/svg">
<path d="M136.819 73.6182C133.903 73.6182 131.053 74.4828 128.629 76.1026C126.205 77.7224 124.315 80.0247 123.199 82.7183C122.084 85.4119 121.792 88.3759 122.361 91.2355C122.929 94.095 124.333 96.7217 126.395 98.7833C128.457 100.845 131.083 102.249 133.943 102.818C136.802 103.387 139.766 103.095 142.46 101.979C145.154 100.863 147.456 98.9737 149.076 96.5495C150.696 94.1253 151.56 91.2752 151.56 88.3596C151.556 84.4512 150.001 80.7041 147.238 77.9405C144.474 75.1769 140.727 73.6224 136.819 73.6182M136.819 115.38C131.475 115.38 126.25 113.795 121.807 110.826C117.363 107.857 113.9 103.637 111.855 98.6994C109.81 93.762 109.274 88.329 110.317 83.0875C111.36 77.846 113.933 73.0313 117.712 69.2524C121.491 65.4734 126.306 62.9 131.547 61.8573C136.789 60.8147 142.222 61.3498 147.159 63.395C152.097 65.4401 156.317 68.9035 159.286 73.347C162.255 77.7906 163.84 83.0148 163.84 88.359C163.831 95.5229 160.982 102.391 155.916 107.457C150.851 112.522 143.983 115.372 136.819 115.38" fill="#D3D800"/>
<path d="M34.1224 115.38C26.9586 115.372 20.0905 112.522 15.0249 107.457C9.95933 102.391 7.10984 95.523 7.10156 88.3591H19.3827C19.4069 92.2529 20.9707 95.9789 23.7325 98.7236C26.4944 101.468 30.23 103.009 34.1238 103.009C38.0177 103.009 41.7533 101.468 44.5152 98.7236C47.277 95.9789 48.8408 92.2529 48.865 88.3591H61.1461C61.1379 95.5235 58.288 102.392 53.2218 107.458C48.1556 112.523 41.2868 115.372 34.1224 115.38" fill="#D3D800"/>
<path d="M110.7 17.2022C109.406 18.8671 107.648 20.111 105.647 20.7765C103.647 21.442 101.493 21.4993 99.4602 20.9412C97.4269 20.383 95.6048 19.2344 94.2243 17.6407C92.8438 16.0469 91.9669 14.0796 91.7045 11.9875C91.4421 9.8954 91.8059 7.77245 92.7501 5.88713C93.6942 4.00182 95.1762 2.43881 97.0087 1.39577C98.8411 0.352731 100.942 -0.123498 103.045 0.027308C105.148 0.178114 107.159 0.949184 108.824 2.243C109.929 3.102 110.855 4.17034 111.547 5.38701C112.24 6.60369 112.686 7.94487 112.86 9.33397C113.035 10.7231 112.934 12.1329 112.563 13.4829C112.192 14.8329 111.559 16.0968 110.7 17.2022" fill="#D3D800"/>
<path d="M9.05993 134.114L11.1773 128.627H13.5448L7.07788 144.927H4.71148L6.44108 140.488L1.63721 128.627H4.00531L6.2364 134.091L7.62542 138.12L9.05993 134.114Z" fill="#D3D800"/>
<path d="M27.9359 128.808V141.125H25.7031V139.463C24.8139 140.807 22.8335 141.306 21.3092 141.33C17.0056 141.33 14.6836 138.302 14.6836 134.91C14.6836 131.586 17.0966 128.604 21.2631 128.604C22.7892 128.604 24.6331 128.968 25.7253 130.448L25.7037 128.809L27.9359 128.808ZM21.2199 130.56C20.6454 130.54 20.0728 130.638 19.5383 130.85C19.0039 131.062 18.5191 131.382 18.1147 131.791C17.7103 132.2 17.395 132.688 17.1888 133.224C16.9825 133.761 16.8898 134.335 16.9164 134.909C16.9134 135.486 17.024 136.058 17.2421 136.592C17.4601 137.127 17.7813 137.613 18.1872 138.023C18.5932 138.433 19.0759 138.759 19.6079 138.983C20.1399 139.207 20.7108 139.323 21.2879 139.326C21.865 139.329 22.437 139.219 22.9713 139.001C23.5056 138.783 23.9918 138.462 24.402 138.056C24.8122 137.65 25.1384 137.167 25.3621 136.635C25.5857 136.103 25.7024 135.532 25.7054 134.955C25.7165 134.367 25.6073 133.783 25.3846 133.239C25.1618 132.695 24.8303 132.202 24.4102 131.79C23.9901 131.379 23.4904 131.058 22.9417 130.846C22.393 130.635 21.8069 130.538 21.2193 130.561L21.2199 130.56Z" fill="#D3D800"/>
<path d="M33.3575 141.125H31.1265V125.188H33.3575V141.125Z" fill="#D3D800"/>
<path d="M39.0016 141.125H36.7705V125.188H39.0016V141.125Z" fill="#D3D800"/>
<path d="M55.2131 128.808V141.125H52.9814V139.463C52.0928 140.807 50.1118 141.306 48.5875 141.33C44.284 141.33 41.9619 138.302 41.9619 134.91C41.9619 131.586 44.3749 128.604 48.5414 128.604C50.0675 128.604 51.9108 128.968 53.0036 130.448L52.9814 128.809L55.2131 128.808ZM48.4971 130.56C47.9226 130.54 47.35 130.639 46.8156 130.85C46.2812 131.062 45.7965 131.383 45.3921 131.791C44.9877 132.2 44.6724 132.688 44.4661 133.224C44.2598 133.761 44.167 134.335 44.1936 134.909C44.1905 135.486 44.3012 136.058 44.5193 136.592C44.7373 137.127 45.0585 137.613 45.4644 138.023C45.8703 138.433 46.3531 138.759 46.8851 138.983C47.4171 139.207 47.988 139.323 48.565 139.326C49.1421 139.329 49.7142 139.219 50.2485 139.001C50.7828 138.783 51.269 138.462 51.6792 138.056C52.0894 137.65 52.4156 137.167 52.6392 136.635C52.8629 136.103 52.9796 135.532 52.9826 134.955C52.9936 134.367 52.8845 133.783 52.6617 133.239C52.439 132.695 52.1075 132.202 51.6874 131.79C51.2673 131.379 50.7676 131.058 50.2189 130.846C49.6702 130.635 49.0841 130.538 48.4965 130.561L48.4971 130.56Z" fill="#D3D800"/>
<path d="M67.2129 141.125H64.9841V130.652H63.0947V128.719H64.9841C64.9841 125.759 66.7364 124.734 69.9927 124.984V126.851C68.4007 126.692 67.2152 126.874 67.2152 128.719H69.7169V130.652H67.2152L67.2129 141.125Z" fill="#D3D800"/>
<path d="M83.7425 135.501H73.3172C73.3172 137.915 75.617 139.372 77.4604 139.372C78.2017 139.408 78.9381 139.235 79.5861 138.873C80.2341 138.511 80.7677 137.975 81.1265 137.325H83.4253C82.9792 138.542 82.16 139.587 81.0849 140.31C80.0097 141.034 78.7334 141.4 77.4382 141.355C74.2729 141.355 71.085 139.215 71.085 134.98C71.085 130.746 74.2275 128.629 77.4831 128.629C80.5346 128.629 83.5396 130.562 83.7903 134.435C83.8326 134.79 83.8165 135.151 83.7425 135.501V135.501ZM81.4432 133.658C81.0111 131.45 79.2571 130.585 77.4814 130.585C75.683 130.585 73.8613 131.472 73.407 133.658H81.4432Z" fill="#D3D800"/>
<path d="M88.9586 141.125H86.7275V125.188H88.9586V141.125Z" fill="#D3D800"/>
<path d="M102.459 133.931C104.782 134.091 107.423 134.819 107.423 137.619C107.423 140.488 104.599 141.33 102.277 141.33C99.7276 141.33 97.36 140.26 97.1997 137.346H99.4313C99.5235 138.734 100.844 139.418 102.391 139.393C103.507 139.371 105.192 139.007 105.192 137.594C105.215 136.206 103.28 135.978 102.21 135.933C100 135.842 97.3834 135.158 97.3834 132.408C97.3834 129.561 99.9095 128.56 102.301 128.56C104.736 128.56 106.9 129.607 107.058 132.18H104.851C104.737 131.087 103.576 130.563 102.232 130.563C100.868 130.563 99.5917 131.087 99.5917 132.362C99.5911 133.908 101.367 133.863 102.459 133.931Z" fill="#D3D800"/>
<path d="M121.95 135.501H111.522C111.522 137.915 113.823 139.372 115.666 139.372C116.407 139.407 117.144 139.234 117.792 138.873C118.44 138.511 118.973 137.975 119.332 137.325H121.631C121.185 138.542 120.365 139.587 119.29 140.31C118.215 141.034 116.939 141.399 115.644 141.355C112.479 141.355 109.291 139.215 109.291 134.98C109.291 130.746 112.433 128.629 115.689 128.629C118.74 128.629 121.746 130.562 121.996 134.435C122.038 134.79 122.023 135.151 121.95 135.501V135.501ZM119.651 133.658C119.218 131.45 117.464 130.585 115.689 130.585C113.89 130.585 112.069 131.472 111.615 133.658H119.651Z" fill="#D3D800"/>
<path d="M127.279 134.705L129.168 132.451L132.584 128.809H135.27L130.307 134.114L135.589 140.92V141.125H133.017L128.873 135.661L127.281 137.367V141.123H125.05V125.186H127.281L127.279 134.705Z" fill="#D3D800"/>
<path d="M139.962 134.705L141.852 132.451L145.268 128.809H147.954L142.99 134.114L148.273 140.92V141.125H145.7L141.556 135.661L139.964 137.367V141.123H137.733V125.186H139.964L139.962 134.705Z" fill="#D3D800"/>
<path d="M162.548 128.808V141.125H160.317V139.463C159.428 140.807 157.448 141.306 155.923 141.33C151.62 141.33 149.298 138.302 149.298 134.91C149.298 131.586 151.711 128.604 155.877 128.604C157.403 128.604 159.247 128.968 160.34 130.448L160.318 128.809L162.548 128.808ZM155.833 130.561C155.259 130.541 154.686 130.639 154.152 130.851C153.617 131.063 153.133 131.383 152.728 131.792C152.324 132.201 152.009 132.689 151.802 133.225C151.596 133.762 151.503 134.335 151.529 134.909C151.523 136.075 151.981 137.195 152.8 138.024C153.62 138.852 154.735 139.321 155.901 139.327C157.066 139.333 158.187 138.876 159.015 138.056C159.844 137.236 160.312 136.121 160.319 134.956C160.33 134.368 160.221 133.784 159.998 133.239C159.775 132.695 159.444 132.202 159.024 131.791C158.604 131.379 158.104 131.058 157.555 130.846C157.007 130.635 156.421 130.538 155.833 130.561Z" fill="#D3D800"/>
<path d="M95.1725 46.5041L96.1857 42.1135C96.3165 41.6066 96.6064 41.155 97.0127 40.8249C97.419 40.4947 97.9205 40.3036 98.4435 40.2793H115.414L118.208 28.1738H98.0364C92.1073 28.1738 86.193 32.9811 84.8267 38.9074L82.3312 49.7102C80.9667 55.637 84.6595 60.4438 90.5858 60.4438H99.5266C99.7532 60.4335 99.9789 60.4779 100.185 60.5734C100.39 60.6689 100.57 60.8126 100.708 60.9924C100.847 61.1721 100.94 61.3825 100.98 61.6058C101.019 61.8291 101.005 62.0587 100.937 62.2751L99.924 66.6662C99.7931 67.1731 99.5031 67.6247 99.0966 67.9547C98.6902 68.2847 98.1887 68.4758 97.6657 68.4999H77.993L75.2002 80.6025H98.0773C104.004 80.6025 109.918 75.7975 111.287 69.869L113.78 59.0661C115.149 53.1393 111.454 48.3349 105.525 48.3349H96.5825C96.3558 48.3448 96.1301 48.2999 95.9244 48.2042C95.7187 48.1084 95.5391 47.9645 95.4008 47.7846C95.2625 47.6047 95.1695 47.3942 95.1298 47.1708C95.09 46.9474 95.1047 46.7178 95.1725 46.5012" fill="white"/>
<path d="M36.5792 28.3279L21.048 47.2045H20.4982L13.6827 28.3279H0.215488L0 29.2484L11.9719 59.1087L6.97298 80.756H19.0779L24.0762 59.1093L49.7376 29.3627L49.9753 28.3307L36.5792 28.3279Z" fill="white"/>
<path d="M82.0582 40.4323L84.8516 28.3274H51.3012V28.3325L48.5055 40.4323L39.1963 80.7572H51.3012L55.9555 60.5933H76.2576L79.051 48.4884H58.7495L60.6093 40.4323H82.0582Z" fill="white"/>
</svg>
