<svg width="135" height="120" viewBox="0 0 135 120" fill="none" xmlns="http://www.w3.org/2000/svg">
<path d="M112.735 60.6596C110.333 60.6596 107.984 61.3719 105.987 62.7066C103.989 64.0413 102.433 65.9383 101.513 68.1578C100.594 70.3773 100.353 72.8196 100.822 75.1758C101.291 77.532 102.448 79.6963 104.146 81.395C105.845 83.0937 108.009 84.2506 110.366 84.7192C112.722 85.1879 115.164 84.9474 117.383 84.028C119.603 83.1087 121.5 81.5518 122.835 79.5543C124.169 77.5569 124.882 75.2084 124.882 72.8061C124.878 69.5857 123.597 66.4982 121.32 64.221C119.043 61.9439 115.956 60.663 112.735 60.6596ZM112.735 95.0701C108.332 95.0701 104.027 93.7643 100.366 91.3179C96.7043 88.8714 93.8506 85.3942 92.1655 81.3259C90.4803 77.2576 90.0394 72.7809 90.8985 68.462C91.7576 64.1431 93.8781 60.176 96.9918 57.0622C100.106 53.9485 104.073 51.828 108.392 50.9689C112.711 50.1098 117.187 50.5508 121.255 52.2359C125.324 53.9211 128.801 56.7747 131.247 60.4361C133.694 64.0975 135 68.4021 135 72.8056C134.993 78.7084 132.645 84.3675 128.471 88.5415C124.297 92.7154 118.638 95.0633 112.735 95.0701Z" fill="#D3D800"/>
<path d="M28.1161 95.0701C22.2132 95.0633 16.5541 92.7154 12.3802 88.5415C8.20629 84.3675 5.85838 78.7084 5.85156 72.8056H15.9709C15.9909 76.0139 17.2793 79.0841 19.5551 81.3457C21.8308 83.6073 24.9088 84.8767 28.1172 84.8767C31.3256 84.8767 34.4037 83.6073 36.6794 81.3457C38.9551 79.0841 40.2436 76.0139 40.2635 72.8056H50.3829C50.3761 78.7088 48.0279 84.3683 43.8534 88.5423C39.679 92.7163 34.0193 95.0639 28.1161 95.0701Z" fill="#D3D800"/>
<path d="M91.214 14.1741C90.148 15.546 88.6991 16.5709 87.0505 17.1193C85.402 17.6677 83.6278 17.7149 81.9525 17.255C80.2771 16.7951 78.7757 15.8487 77.6382 14.5355C76.5007 13.2223 75.7782 11.6013 75.562 9.8774C75.3457 8.15355 75.6456 6.4043 76.4235 4.85085C77.2014 3.29739 78.4226 2.00952 79.9325 1.15008C81.4424 0.290641 83.1732 -0.101759 84.9061 0.0225011C86.639 0.146761 88.2962 0.782103 89.668 1.84818C90.5789 2.55597 91.3414 3.43625 91.9121 4.43876C92.4828 5.44127 92.8504 6.54637 92.9939 7.69095C93.1375 8.83554 93.0542 9.99719 92.7488 11.1096C92.4434 12.222 91.9219 13.2633 91.214 14.1741Z" fill="#D3D800"/>
<path d="M7.46525 110.506L9.20991 105.985H11.1607L5.8321 119.416H3.88224L5.30739 115.758L1.34912 105.985H3.30038L5.13874 110.487L6.28325 113.807L7.46525 110.506Z" fill="#D3D800"/>
<path d="M23.0187 106.134V116.283H21.1789V114.914C20.4462 116.021 18.8145 116.433 17.5584 116.452C14.0124 116.452 12.0991 113.957 12.0991 111.162C12.0991 108.423 14.0874 105.966 17.5205 105.966C18.7779 105.966 20.2972 106.266 21.1972 107.486L21.1794 106.135L23.0187 106.134ZM17.4849 107.578C17.0115 107.561 16.5397 107.643 16.0993 107.817C15.6589 107.992 15.2595 108.256 14.9263 108.592C14.5931 108.929 14.3333 109.331 14.1633 109.773C13.9934 110.216 13.9169 110.688 13.9389 111.161C13.9364 111.637 14.0276 112.108 14.2073 112.548C14.3869 112.989 14.6515 113.389 14.986 113.727C15.3205 114.065 15.7183 114.334 16.1566 114.518C16.595 114.703 17.0654 114.799 17.5409 114.801C18.0164 114.804 18.4877 114.713 18.928 114.533C19.3683 114.353 19.7688 114.089 20.1068 113.754C20.4448 113.42 20.7136 113.022 20.8979 112.584C21.0822 112.145 21.1783 111.675 21.1808 111.199C21.1899 110.715 21.1 110.234 20.9164 109.785C20.7329 109.337 20.4597 108.931 20.1136 108.592C19.7675 108.253 19.3557 107.988 18.9036 107.814C18.4515 107.64 17.9685 107.56 17.4844 107.579L17.4849 107.578Z" fill="#D3D800"/>
<path d="M27.4858 116.283H25.6475V103.152H27.4858V116.283Z" fill="#D3D800"/>
<path d="M32.1362 116.283H30.2979V103.152H32.1362V116.283Z" fill="#D3D800"/>
<path d="M45.4943 106.134V116.283H43.6555V114.914C42.9232 116.021 41.291 116.433 40.035 116.452C36.489 116.452 34.5757 113.957 34.5757 111.162C34.5757 108.423 36.564 105.966 39.9971 105.966C41.2545 105.966 42.7733 106.266 43.6738 107.486L43.6555 106.135L45.4943 106.134ZM39.9605 107.578C39.4871 107.561 39.0154 107.643 38.575 107.817C38.1346 107.992 37.7353 108.256 37.4021 108.593C37.0688 108.929 36.8091 109.331 36.6391 109.773C36.4691 110.216 36.3926 110.688 36.4145 111.161C36.412 111.637 36.5032 112.108 36.6829 112.548C36.8625 112.989 37.1272 113.389 37.4616 113.727C37.7961 114.065 38.1939 114.334 38.6323 114.518C39.0706 114.703 39.541 114.799 40.0165 114.801C40.492 114.804 40.9634 114.713 41.4036 114.533C41.8439 114.353 42.2445 114.089 42.5825 113.754C42.9205 113.42 43.1893 113.022 43.3735 112.584C43.5578 112.145 43.6539 111.675 43.6564 111.199C43.6656 110.715 43.5756 110.234 43.3921 109.785C43.2086 109.337 42.9354 108.931 42.5892 108.592C42.2431 108.253 41.8313 107.988 41.3792 107.814C40.9271 107.64 40.4442 107.56 39.96 107.579L39.9605 107.578Z" fill="#D3D800"/>
<path d="M55.382 116.283H53.5456V107.654H51.9888V106.061H53.5456C53.5456 103.622 54.9894 102.777 57.6725 102.984V104.522C56.3607 104.391 55.3839 104.541 55.3839 106.061H57.4453V107.654H55.3839L55.382 116.283Z" fill="#D3D800"/>
<path d="M69.0018 111.65H60.4116C60.4116 113.638 62.3066 114.839 63.8254 114.839C64.4362 114.868 65.043 114.726 65.577 114.428C66.1109 114.129 66.5506 113.688 66.8463 113.152H68.7404C68.3728 114.155 67.6979 115.016 66.8119 115.612C65.926 116.208 64.8744 116.51 63.8072 116.473C61.1991 116.473 58.5723 114.709 58.5723 111.22C58.5723 107.732 61.1616 105.987 63.8442 105.987C66.3586 105.987 68.8345 107.58 69.0411 110.771C69.076 111.064 69.0627 111.361 69.0018 111.65ZM67.1072 110.131C66.7512 108.311 65.3059 107.598 63.8428 107.598C62.3609 107.598 60.8599 108.33 60.4856 110.131H67.1072Z" fill="#D3D800"/>
<path d="M73.2998 116.283H71.4614V103.152H73.2998V116.283Z" fill="#D3D800"/>
<path d="M84.4234 110.356C86.3376 110.488 88.5133 111.087 88.5133 113.394C88.5133 115.759 86.1868 116.452 84.2735 116.452C82.1727 116.452 80.222 115.571 80.0898 113.17H81.9287C82.0046 114.313 83.0924 114.876 84.3676 114.856C85.2868 114.838 86.6754 114.538 86.6754 113.374C86.6941 112.23 85.0999 112.043 84.2182 112.005C82.3976 111.93 80.2412 111.367 80.2412 109.1C80.2412 106.755 82.3227 105.93 84.2931 105.93C86.2997 105.93 88.0827 106.793 88.213 108.913H86.3943C86.3006 108.013 85.3435 107.58 84.2364 107.58C83.1121 107.58 82.0608 108.013 82.0608 109.063C82.0603 110.337 83.5234 110.3 84.4234 110.356Z" fill="#D3D800"/>
<path d="M100.484 111.65H91.8916C91.8916 113.638 93.7871 114.839 95.3059 114.839C95.9167 114.868 96.5235 114.726 97.0574 114.427C97.5913 114.129 98.0311 113.688 98.3268 113.152H100.221C99.8532 114.155 99.1783 115.016 98.2924 115.612C97.4065 116.208 96.3549 116.509 95.2877 116.473C92.68 116.473 90.0532 114.709 90.0532 111.22C90.0532 107.732 92.6421 105.987 95.3251 105.987C97.8391 105.987 100.315 107.58 100.522 110.771C100.557 111.064 100.544 111.361 100.484 111.65ZM98.5896 110.131C98.2331 108.311 96.7878 107.598 95.3251 107.598C93.8428 107.598 92.3423 108.33 91.9679 110.131H98.5896Z" fill="#D3D800"/>
<path d="M104.875 110.993L106.431 109.136L109.246 106.135H111.46L107.37 110.506L111.722 116.115V116.283H109.603L106.188 111.781L104.876 113.187V116.281H103.038V103.15H104.876L104.875 110.993Z" fill="#D3D800"/>
<path d="M115.325 110.993L116.883 109.136L119.697 106.135H121.91L117.82 110.506L122.173 116.115V116.283H120.053L116.639 111.781L115.327 113.187V116.281H113.489V103.15H115.327L115.325 110.993Z" fill="#D3D800"/>
<path d="M133.936 106.134V116.283H132.097V114.914C131.365 116.021 129.733 116.433 128.476 116.452C124.931 116.452 123.018 113.957 123.018 111.162C123.018 108.423 125.006 105.966 128.439 105.966C129.696 105.966 131.216 106.266 132.116 107.486L132.098 106.135L133.936 106.134ZM128.402 107.579C127.929 107.562 127.457 107.643 127.017 107.818C126.577 107.993 126.177 108.256 125.844 108.593C125.511 108.93 125.251 109.332 125.081 109.774C124.911 110.216 124.835 110.689 124.856 111.162C124.851 112.122 125.228 113.045 125.904 113.728C126.579 114.41 127.498 114.797 128.458 114.802C129.419 114.807 130.342 114.43 131.024 113.755C131.707 113.079 132.093 112.16 132.098 111.2C132.107 110.715 132.018 110.234 131.834 109.786C131.651 109.337 131.378 108.931 131.031 108.592C130.685 108.253 130.274 107.988 129.822 107.814C129.369 107.64 128.887 107.56 128.402 107.579Z" fill="#D3D800"/>
<path d="M78.4195 38.3182L79.2544 34.7006C79.3622 34.2829 79.601 33.9107 79.9358 33.6387C80.2707 33.3667 80.6838 33.2092 81.1148 33.1892H95.0978L97.3999 23.2146H80.7793C75.8939 23.2146 71.0207 27.1757 69.8949 32.0587L67.8387 40.9601C66.7143 45.8436 69.7572 49.8042 74.6402 49.8042H82.0072C82.1939 49.7957 82.3799 49.8324 82.5494 49.9111C82.719 49.9897 82.867 50.1082 82.981 50.2562C83.095 50.4043 83.1716 50.5777 83.2044 50.7617C83.2371 50.9457 83.225 51.1349 83.1691 51.3132L82.3347 54.9314C82.2268 55.349 81.9878 55.7211 81.6529 55.9931C81.318 56.265 80.9048 56.4224 80.4739 56.4422H64.2641L61.9629 66.4145H80.813C85.6966 66.4145 90.5698 62.4553 91.6975 57.5704L93.7518 48.6691C94.8799 43.7855 91.8352 39.8268 86.9498 39.8268H79.5814C79.3946 39.8349 79.2086 39.798 79.0391 39.7191C78.8696 39.6402 78.7217 39.5216 78.6077 39.3734C78.4937 39.2252 78.4171 39.0517 78.3844 38.8676C78.3516 38.6836 78.3637 38.4943 78.4195 38.3159" fill="white"/>
<path d="M30.1403 23.3416L17.343 38.8954H16.89L11.2742 23.3416H0.177557L0 24.1L9.86452 48.7042L5.74556 66.541H15.7197L19.8382 48.7046L40.9826 24.1942L41.1784 23.3439L30.1403 23.3416Z" fill="white"/>
<path d="M67.614 33.3152L69.9157 23.3411H42.271V23.3453L39.9675 33.3152L32.2969 66.5419H42.271L46.1061 49.9274H62.8344L65.1361 39.9533H48.4082L49.9407 33.3152H67.614Z" fill="white"/>
</svg>
